#!OML:ASF X:\für Bonn\!DataBase\2005_08_10_Bjorn_Final\c3d\bjorn.ASF
:FULLY-SPECIFIED
:DEGREES
16
root 2.33765 18.7224 3.30421 -179.864 -4.22849 -183.005
lowerback 12.6149 4.54849 13.6434
upperback 14.6215 4.20766 0.441326
thorax 10.4379 2.41013 -7.35937
lowerneck -1.54692 11.6598 0.482823
upperneck 2.76078 16.01 -18.8246
head 2.69188 7.42402 -5.13315
rclavicle -1.05753e-013 5.24792e-014
rhumerus -33.5161 -11.7701 -73.3232
rradius 51.3574
rwrist -7.82469
rhand -14.0298 13.148
rfingers 7.12502
rthumb 12.1004 -16.4821
lclavicle -1.05753e-013 5.24792e-014
lhumerus -33.4304 -11.739 90.04
lradius 56.9499
lwrist -24.444
lhand -41.8459 -25.0737
lfingers 7.12502
lthumb -14.7467 4.38171
rfemur -20.0494 -13.4495 19.1294
rtibia 42.3141
rfoot -17.1038 21.0608
rtoes -0.731585
lfemur -30.0398 -9.00928 -21.9959
ltibia 57.3215
lfoot -11.7678 2.30649
ltoes -12.0033
17
root 2.32293 18.7395 3.32548 -180.053 -4.41714 -183.219
lowerback 13.0053 4.59017 13.829
upperback 14.652 4.30679 0.469649
thorax 10.3108 2.46252 -7.45128
lowerneck -1.73836 11.5638 0.301241
upperneck 2.91633 15.9081 -18.749
head 2.73932 7.34816 -5.07609
rclavicle 4.69132e-014 -1.27222e-014
rhumerus -33.5306 -11.1512 -72.9829
rradius 51.1517
rwrist -7.63345
rhand -14.3399 13.4237
rfingers 7.12502
rthumb 11.8013 -16.2238
lclavicle 4.69132e-014 -1.27222e-014
lhumerus -33.5461 -11.6248 89.9332
lradius 58.273
lwrist -24.3228
lhand -42.4125 -24.3752
lfingers 7.12502
lthumb -15.2925 5.03942
rfemur -19.7049 -12.8491 18.8772
rtibia 42.0007
rfoot -17.1617 20.1039
rtoes -0.693538
lfemur -31.1898 -9.10463 -22.1981
ltibia 59.5116
lfoot -11.4715 2.28787
ltoes -10.5906
18
root 2.30758 18.7594 3.34555 -180.257 -4.56197 -183.433
lowerback 13.4013 4.63803 13.9951
upperback 14.684 4.41144 0.520453
thorax 10.1795 2.51244 -7.5086
lowerneck -1.86659 11.4725 0.149273
upperneck 3.03978 15.8053 -18.7576
head 2.77638 7.27399 -5.05315
rclavicle 3.18055e-015 3.97569e-014
rhumerus -33.5074 -10.4582 -72.6329
rradius 50.9845
rwrist -7.35815
rhand -14.6616 13.6063
rfingers 7.12502
rthumb 11.4911 -16.0587
lclavicle 3.18055e-015 3.97569e-014
lhumerus -33.6944 -11.4324 89.8271
lradius 59.6235
lwrist -24.2771
lhand -42.8373 -23.7273
lfingers 7.12502
lthumb -15.7017 5.65566
rfemur -19.3153 -12.2932 18.6212
rtibia 41.6345
rfoot -17.2468 19.1807
rtoes -1.06052
lfemur -32.4174 -9.11661 -22.3997
ltibia 61.8653
lfoot -11.4259 2.40829
ltoes -9.33861
19
root 2.29257 18.7819 3.36701 -180.495 -4.70281 -183.661
lowerback 13.8626 4.68188 14.1732
upperback 14.6999 4.52641 0.563615
thorax 9.99898 2.56609 -7.5866
lowerneck -1.94448 11.374 0.108386
upperneck 3.19857 15.6972 -18.8431
head 2.83033 7.19606 -5.07173
rclavicle -1.90833e-014 8.42847e-014
rhumerus -33.461 -9.77415 -72.2988
rradius 50.805
rwrist -7.10931
rhand -14.9451 13.7311
rfingers 7.12502
rthumb 11.2177 -15.949
lclavicle -1.90833e-014 8.42847e-014
lhumerus -33.9015 -11.3085 89.6828
lradius 61.0198
lwrist -24.21
lhand -43.2476 -23.1466
lfingers 7.12502
lthumb -16.0968 6.20486
rfemur -18.8608 -11.7705 18.337
rtibia 41.2235
rfoot -17.2539 18.3377
rtoes -1.34861
lfemur -33.7136 -9.09257 -22.6091
ltibia 64.3881
lfoot -11.5989 2.67383
ltoes -8.92362
20
root 2.27778 18.8076 3.38722 -180.735 -4.81617 -183.878
lowerback 14.2903 4.73564 14.3764
upperback 14.7359 4.64688 0.602203
thorax 9.87103 2.62762 -7.68173
lowerneck -2.02755 11.2723 0.135788
upperneck 3.34031 15.5852 -18.9611
head 2.88776 7.11766 -5.11034
rclavicle 5.725e-014 4.77083e-014
rhumerus -33.341 -9.11873 -71.9927
rradius 50.6427
rwrist -6.83005
rhand -15.2011 13.7511
rfingers 7.12502
rthumb 10.9707 -15.9422
lclavicle 5.725e-014 4.77083e-014
lhumerus -34.0587 -11.1884 89.4858
lradius 62.4
lwrist -24.2218
lhand -43.718 -22.7401
lfingers 7.12502
lthumb -16.5497 6.57412
rfemur -18.3906 -11.2991 18.0485
rtibia 40.7916
rfoot -17.1578 17.6393
rtoes -1.35646
lfemur -35.1047 -9.00856 -22.7901
ltibia 67.0706
lfoot -11.8884 3.01766
ltoes -9.42157
21
root 2.26382 18.8312 3.40721 -181.004 -4.93187 -184.096
lowerback 14.7651 4.78108 14.5846
upperback 14.7557 4.76877 0.647099
thorax 9.69927 2.68679 -7.77728
lowerneck -2.07052 11.1703 0.218838
upperneck 3.48552 15.4719 -19.1361
head 2.94824 7.03878 -5.1769
rclavicle -2.8625e-014 5.725e-014
rhumerus -33.2272 -8.4528 -71.691
rradius 50.4827
rwrist -6.56991
rhand -15.4616 13.7319
rfingers 7.12502
rthumb 10.7196 -15.9746
lclavicle -2.8625e-014 5.725e-014
lhumerus -34.2829 -11.1404 89.2668
lradius 63.8348
lwrist -24.1621
lhand -44.1443 -22.5195
lfingers 7.12502
lthumb -16.9601 6.76002
rfemur -17.8885 -10.881 17.7411
rtibia 40.3699
rfoot -16.9998 17.0537
rtoes -1.04709
lfemur -36.5738 -8.88061 -22.972
ltibia 69.8966
lfoot -12.197 3.51458
ltoes -11.1347
22
root 2.24971 18.8494 3.42635 -181.289 -5.02249 -184.316
lowerback 15.2194 4.83069 14.7812
upperback 14.7982 4.88454 0.70262
thorax 9.56452 2.74134 -7.85354
lowerneck -2.08264 11.0795 0.339739
upperneck 3.57984 15.3659 -19.3568
head 2.99559 6.96822 -5.26556
rclavicle -7.79236e-014 -6.36111e-015
rhumerus -33.0388 -7.76416 -71.3935
rradius 50.3614
rwrist -6.44051
rhand -15.657 13.648
rfingers 7.12502
rthumb 10.531 -16.0682
lclavicle -7.79236e-014 -6.36111e-015
lhumerus -34.4464 -11.0816 89.0176
lradius 65.2218
lwrist -24.0898
lhand -44.4984 -22.5234
lfingers 7.12502
lthumb -17.3009 6.72652
rfemur -17.3958 -10.5891 17.4246
rtibia 39.985
rfoot -16.8452 16.6049
rtoes -0.906588
lfemur -38.0988 -8.66506 -23.1614
ltibia 72.8237
lfoot -12.5024 4.13838
ltoes -13.8656
23
root 2.23675 18.8647 3.44412 -181.576 -5.09183 -184.536
lowerback 15.6731 4.88814 14.9911
upperback 14.8459 5.0129 0.742357
thorax 9.4467 2.80563 -7.95556
lowerneck -2.10952 10.9856 0.525276
upperneck 3.65528 15.2559 -19.6089
head 3.04667 6.89677 -5.37342
rclavicle -6.83819e-014 -6.04305e-014
rhumerus -32.8239 -7.1112 -71.1475
rradius 50.2846
rwrist -6.44778
rhand -15.849 13.4956
rfingers 7.12502
rthumb 10.3458 -16.2299
lclavicle -6.83819e-014 -6.04305e-014
lhumerus -34.5552 -11.0152 88.6961
lradius 66.5538
lwrist -24.1334
lhand -44.7998 -22.6747
lfingers 7.12502
lthumb -17.591 6.54951
rfemur -16.9185 -10.3513 17.1012
rtibia 39.6383
rfoot -16.6791 16.2486
rtoes -0.686851
lfemur -39.6779 -8.41532 -23.3276
ltibia 75.812
lfoot -12.8556 4.72578
ltoes -15.6894
24
root 2.22396 18.8786 3.46044 -181.864 -5.15898 -184.756
lowerback 16.1103 4.94362 15.2064
upperback 14.906 5.13365 0.785782
thorax 9.35424 2.86721 -8.05549
lowerneck -2.17583 10.9039 0.689771
upperneck 3.73679 15.1665 -19.8162
head 3.10278 6.83488 -5.46137
rclavicle 4.45278e-014 -9.54166e-014
rhumerus -32.5289 -6.46021 -70.9369
rradius 50.2092
rwrist -6.62532
rhand -15.9916 13.3882
rfingers 7.12502
rthumb 10.2083 -16.3441
lclavicle 4.45278e-014 -9.54166e-014
lhumerus -34.5977 -10.9405 88.326
lradius 67.8275
lwrist -24.2167
lhand -45.1455 -22.8954
lfingers 7.12502
lthumb -17.9237 6.29869
rfemur -16.4486 -10.1829 16.7722
rtibia 39.3151
rfoot -16.5047 15.9904
rtoes -0.473065
lfemur -41.3004 -8.15428 -23.4711
ltibia 78.8253
lfoot -13.1893 5.27104
ltoes -16.9122
25
root 2.21097 18.8931 3.47534 -182.197 -5.18827 -184.96
lowerback 16.587 5.00204 15.4263
upperback 14.972 5.25924 0.850014
thorax 9.24986 2.92673 -8.13829
lowerneck -2.16727 10.8287 0.842184
upperneck 3.7478 15.0697 -20.0352
head 3.12406 6.77839 -5.55784
rclavicle -3.18055e-014 1.09729e-013
rhumerus -32.2115 -5.81842 -70.7238
rradius 50.1497
rwrist -6.98356
rhand -15.9538 13.3513
rfingers 7.12502
rthumb 10.2448 -16.3792
lclavicle -3.18055e-014 1.09729e-013
lhumerus -34.6201 -10.7647 87.9638
lradius 69.0012
lwrist -24.3698
lhand -45.5273 -23.2139
lfingers 7.12502
lthumb -18.291 5.94608
rfemur -15.9198 -10.0075 16.4502
rtibia 38.988
rfoot -16.3352 15.7787
rtoes -0.191231
lfemur -42.8966 -7.87384 -23.5593
ltibia 81.8326
lfoot -13.5357 5.64843
ltoes -17.2594
26
root 2.19845 18.9089 3.48934 -182.525 -5.2116 -185.189
lowerback 17.0568 5.06047 15.6285
upperback 15.0501 5.38044 0.902538
thorax 9.16368 2.98399 -8.22434
lowerneck -2.26101 10.7627 1.0065
upperneck 3.83926 15.0062 -20.2526
head 3.19104 6.72613 -5.6463
rclavicle -3.81667e-014 5.56597e-014
rhumerus -31.8063 -5.30322 -70.5173
rradius 50.0482
rwrist -7.3913
rhand -15.7793 13.4109
rfingers 7.12502
rthumb 10.4131 -16.3113
lclavicle -3.81667e-014 5.56597e-014
lhumerus -34.5886 -10.5783 87.5548
lradius 70.1125
lwrist -24.5217
lhand -45.9171 -23.629
lfingers 7.12502
lthumb -18.6659 5.49545
rfemur -15.3842 -9.83463 16.0992
rtibia 38.6558
rfoot -16.1948 15.5802
rtoes -0.169508
lfemur -44.5212 -7.61563 -23.6135
ltibia 84.8185
lfoot -13.9772 5.74446
ltoes -16.7134
27
root 2.18616 18.9247 3.5028 -182.885 -5.20257 -185.39
lowerback 17.5695 5.11934 15.8451
upperback 15.1304 5.50565 0.979534
thorax 9.06051 3.03904 -8.29498
lowerneck -2.38667 10.6978 1.16273
upperneck 3.97622 14.9533 -20.4857
head 3.27888 6.67179 -5.73577
rclavicle 8.26944e-014 -4.45278e-014
rhumerus -31.3562 -4.86221 -70.2834
rradius 49.8996
rwrist -7.79549
rhand -15.567 13.5309
rfingers 7.12502
rthumb 10.6178 -16.1809
lclavicle 8.26944e-014 -4.45278e-014
lhumerus -34.5414 -10.304 87.165
lradius 71.1308
lwrist -24.7877
lhand -46.3738 -24.0605
lfingers 7.12502
lthumb -19.1052 5.02109
rfemur -14.8133 -9.68075 15.7764
rtibia 38.3136
rfoot -16.0638 15.4146
rtoes -0.219731
lfemur -46.1482 -7.34606 -23.5596
ltibia 87.7829
lfoot -14.5029 5.44996
ltoes -15.4805
28
root 2.17538 18.9388 3.51617 -183.262 -5.17758 -185.618
lowerback 18.1303 5.18112 16.0218
upperback 15.212 5.6373 1.05346
thorax 8.93001 3.09042 -8.35274
lowerneck -2.51698 10.6439 1.30488
upperneck 4.09374 14.9131 -20.7014
head 3.36064 6.62549 -5.81748
rclavicle 2.06736e-014 -4.45278e-014
rhumerus -30.8513 -4.5347 -70.0285
rradius 49.7125
rwrist -8.13378
rhand -15.3547 13.6139
rfingers 7.12502
rthumb 10.8227 -16.0872
lclavicle 2.06736e-014 -4.45278e-014
lhumerus -34.4862 -10.0309 86.7616
lradius 72.1088
lwrist -25.0801
lhand -46.8699 -24.3817
lfingers 7.12502
lthumb -19.5822 4.65213
rfemur -14.2262 -9.52348 15.4243
rtibia 37.9768
rfoot -15.9738 15.27
rtoes -0.487466
lfemur -47.8181 -7.04796 -23.4632
ltibia 90.7193
lfoot -14.9255 4.80145
ltoes -14.1091
29
root 2.16492 18.9508 3.52886 -183.665 -5.14498 -185.816
lowerback 18.7363 5.2284 16.2245
upperback 15.2869 5.75901 1.1446
thorax 8.77039 3.13379 -8.40989
lowerneck -2.68968 10.6041 1.41327
upperneck 4.2701 14.9041 -20.8867
head 3.46585 6.58737 -5.87977
rclavicle 2.70347e-014 1.08139e-013
rhumerus -30.3088 -4.28673 -69.7501
rradius 49.5292
rwrist -8.3634
rhand -15.1396 13.6002
rfingers 7.12502
rthumb 11.0301 -16.09
lclavicle 2.70347e-014 1.08139e-013
lhumerus -34.4966 -9.72919 86.3698
lradius 73.094
lwrist -25.3419
lhand -47.3522 -24.6861
lfingers 7.12502
lthumb -20.0458 4.29982
rfemur -13.6158 -9.37465 15.1066
rtibia 37.6467
rfoot -15.8906 15.1408
rtoes -0.821248
lfemur -49.5325 -6.71273 -23.2793
ltibia 93.6309
lfoot -15.2508 3.90559
ltoes -13.1145
30
root 2.15566 18.9637 3.54166 -184.105 -5.09357 -186.027
lowerback 19.3821 5.28408 16.4073
upperback 15.3939 5.88126 1.24327
thorax 8.62904 3.17221 -8.45075
lowerneck -2.91138 10.5649 1.48316
upperneck 4.4182 14.8945 -21.0579
head 3.56727 6.54763 -5.93005
rclavicle -2.06736e-014 4.6118e-014
rhumerus -29.6415 -4.11766 -69.4596
rradius 49.3163
rwrist -8.51673
rhand -14.9104 13.5305
rfingers 7.12502
rthumb 11.2511 -16.1478
lclavicle -2.06736e-014 4.6118e-014
lhumerus -34.4747 -9.45253 85.9557
lradius 74.121
lwrist -25.6786
lhand -47.7203 -24.6341
lfingers 7.12502
lthumb -20.3996 4.31436
rfemur -12.975 -9.1993 14.7725
rtibia 37.3282
rfoot -15.8295 15.0212
rtoes -1.28238
lfemur -51.2642 -6.32838 -23.054
ltibia 96.4921
lfoot -15.4711 2.8595
ltoes -12.3477
